<?xml version="1.0" encoding="UTF-8" standalone="no"?>
<!DOCTYPE svg PUBLIC "-//W3C//DTD SVG 1.1//EN" "http://www.w3.org/Graphics/SVG/1.1/DTD/svg11.dtd">
<svg width="100%" height="100%" viewBox="0 0 192 192" version="1.1" xmlns="http://www.w3.org/2000/svg" xmlns:xlink="http://www.w3.org/1999/xlink" xml:space="preserve" xmlns:serif="http://www.serif.com/" style="fill-rule:evenodd;clip-rule:evenodd;stroke-linejoin:round;stroke-miterlimit:2;">
    <path id="settored" d="M186.1,50.5C183.9,42.4 177.6,35.9 169.5,33.8C154.8,29.8 96,29.8 96,29.8C96,29.8 37.2,29.8 22.5,33.8C14.4,36 8,42.4 5.9,50.5C2,65.2 2,96 2,96C2,96 2,126.8 5.9,141.5C8.1,149.6 14.4,156.1 22.5,158.2C37.2,162.2 96,162.2 96,162.2C96,162.2 154.8,162.2 169.5,158.2C177.6,156 184,149.6 186.1,141.5C190,126.8 190,96 190,96C190,96 190,65.2 186.1,50.5ZM76.8,124L76.8,68L125.9,96L76.8,124Z" style="fill-rule:nonzero;"/>
</svg>
