<?xml version="1.0" encoding="UTF-8" standalone="no"?>
<!DOCTYPE svg PUBLIC "-//W3C//DTD SVG 1.1//EN" "http://www.w3.org/Graphics/SVG/1.1/DTD/svg11.dtd">
<svg width="100%" height="100%" viewBox="0 0 100 100" version="1.1" xmlns="http://www.w3.org/2000/svg" xmlns:xlink="http://www.w3.org/1999/xlink" xml:space="preserve" xmlns:serif="http://www.serif.com/" style="fill-rule:evenodd;clip-rule:evenodd;stroke-linejoin:round;stroke-miterlimit:2;">
    <g id="Logo_FIXED" transform="matrix(0.4,0,0,0.4,-2.13163e-15,9.37488)">
        <path d="M78.62,203.14C173,203.14 224.56,125 224.56,57.2C224.56,54.98 224.56,52.77 224.41,50.57C234.45,43.303 243.116,34.306 250,24C240.64,28.15 230.709,30.87 220.54,32.07C231.241,25.667 239.259,15.588 243.09,3.72C233.02,9.691 222.005,13.901 210.52,16.17C200.821,5.847 187.269,-0.014 173.105,-0.014C144.941,-0.014 121.765,23.161 121.765,51.326C121.765,55.256 122.216,59.173 123.11,63C81.882,60.92 43.423,41.405 17.4,9.36C3.863,32.664 10.867,62.864 33.28,77.83C25.118,77.585 17.134,75.383 10,71.41L10,72.06C10.011,96.382 27.31,117.52 51.15,122.34C43.599,124.4 35.675,124.701 27.99,123.22C34.695,144.06 54.022,158.426 75.91,158.84C57.748,173.106 35.305,180.857 12.21,180.84C8.129,180.829 4.052,180.581 0,180.1C23.454,195.151 50.752,203.137 78.62,203.1" style="fill-rule:nonzero;"/>
    </g>
</svg>
